<?xml version="1.0" encoding="UTF-8" standalone="no"?>
<!-- Created with Inkscape (http://www.inkscape.org/) -->

<svg
   version="1.1"
   id="svg9"
   width="1038.6667"
   height="1122.6667"
   viewBox="0 0 1038.6667 1122.6667"
   sodipodi:docname="notepipe.svg"
   inkscape:version="1.2.1 (9c6d41e410, 2022-07-14)"
   xmlns:inkscape="http://www.inkscape.org/namespaces/inkscape"
   xmlns:sodipodi="http://sodipodi.sourceforge.net/DTD/sodipodi-0.dtd"
   xmlns="http://www.w3.org/2000/svg"
   xmlns:svg="http://www.w3.org/2000/svg">
  <defs
     id="defs13" />
  <sodipodi:namedview
     id="namedview11"
     pagecolor="#ffffff"
     bordercolor="#000000"
     borderopacity="0.25"
     inkscape:showpageshadow="2"
     inkscape:pageopacity="0.0"
     inkscape:pagecheckerboard="0"
     inkscape:deskcolor="#d1d1d1"
     showgrid="false"
     inkscape:zoom="1"
     inkscape:cx="429.5"
     inkscape:cy="480"
     inkscape:window-width="2560"
     inkscape:window-height="1377"
     inkscape:window-x="1912"
     inkscape:window-y="-8"
     inkscape:window-maximized="1"
     inkscape:current-layer="g15" />
  <g
     inkscape:groupmode="layer"
     inkscape:label="Image"
     id="g15">
    <path
       style="fill:#6f8dbd;stroke-width:1.33333"
       d="M 6.5261676,1123.3334 H 0.00825812 V 562.00002 0.66666669 H 519.34161 1038.675 V 502.37 1004.0734 l -2.0041,2.8613 -2.0042,2.8613 -4.3292,1.3799 -4.3292,1.3798 -16.6666,1.4368 -16.66674,1.4368 -22,2.6712 -22,2.6711 -41.33334,4.5614 -41.33333,4.5615 -40,4.1119 -40,4.112 -40.00001,4.6529 -40,4.6529 -44,4.65 -44,4.6499 -44,4.7005 -44,4.7004 -34.03396,3.9159 -34.03397,3.916 -44.6327,4.6588 -44.63271,4.6588 -64.66667,7.4024 -64.66667,7.4024 -30.66667,3.3433 -30.66666,3.3433 -84.4821,9.2837 -84.482093,9.2838 z M 194.4538,835.33336 h 1.29191 l 48.46461,-11.95483 48.46462,-11.95481 52.48696,-12.68444 52.48697,-12.68444 7.51303,-3.38373 7.51304,-3.38374 188.31217,-188.977 188.31216,-188.97702 -0.31216,-0.85165 -0.31216,-0.85166 -65.43584,-67.14835 -65.43584,-67.14835 -14.2057,-14.78102 -14.2057,-14.78102 -41.69179,42.0655 -41.6918,42.06549 -87.38107,88.04886 -87.38106,88.04887 -59.28561,59.69781 -59.28561,59.69783 -3.66732,6.40887 -3.6673,6.40887 -25.39403,101.22665 -25.39403,101.22664 -0.69517,2.33334 -0.69519,2.33333 z m 97.23199,-65.33333 h -0.49277 l -4.00754,-3 -4.00753,-3 -11.58484,-11.2797 -11.58484,-11.2797 v -2.23534 -2.23533 l 5.20981,-21.8183 5.20982,-21.8183 3.55886,-15.66667 3.55888,-15.66667 h 0.90544 0.90544 l 44.65175,44.66667 44.65175,44.66667 h -0.88983 -0.88981 l -37.35091,9.33333 -37.35092,9.33334 z m 41.89127,-120.05405 -0.90212,-0.054 -7.32958,-5.68585 -7.32957,-5.68587 -3.00376,-4.45728 -3.00376,-4.45728 0.008,-2.80281 0.008,-2.80283 1.4508,-5.22534 1.45079,-5.22537 15.20564,-15.31884 15.20562,-15.31885 133.9026,-134.29364 133.90259,-134.29366 3.90725,-2.7822 3.90725,-2.78221 5.38954,-0.86183 5.38953,-0.86181 4.73679,1.56328 4.73678,1.56328 4.01055,4.56776 4.01053,4.56774 1.37088,5.09104 1.37087,5.09104 -1.16839,4.07395 -1.1684,4.07396 -1.63141,3.18584 -1.63255,3.18581 -146.18163,146.45794 -146.18163,146.45793 -9.76455,6.54208 -9.76453,6.54206 -0.90213,-0.054 z m 484.94208,-286.64069 0.51087,0.028 14.82246,-12.52868 14.82248,-12.52869 9.67354,-10.00296 9.67353,-10.00295 4.32647,-9.13502 4.32646,-9.13498 V 285.93087 271.8617 l -5.18436,-10.48982 -5.18436,-10.48984 -43.69953,-44.10768 -43.69955,-44.10769 -7.11609,-4.28364 -7.11611,-4.28365 -8.66667,-2.21473 -8.66666,-2.21475 -9.57214,0.80672 -9.57212,0.80673 -7.20968,3.18846 -7.20969,3.18846 -9.21819,7.68166 -9.21818,7.68165 -17.55944,17.36268 -17.55946,17.3627 47.54883,46.7922 47.54881,46.79219 31.34397,30.97194 31.34396,30.97195 0.51085,0.028 z"
       id="path223" />
    <path
       style="fill:#426cba;stroke-width:1.33333"
       d="M 4.063158,1123.3334 H 0.00825812 V 562.00002 0.66666669 H 519.34161 1038.675 V 501.8202 1002.9738 l -2.7382,3.481 -2.7381,3.481 -4.9285,1.2431 -4.9285,1.2431 -11.3334,0.8647 -11.3333,0.8646 -24.00004,2.6253 -24,2.6254 -26.66667,3.2352 -26.66667,3.2353 -47.33333,4.7831 -47.33334,4.7832 -28,3.2378 -28,3.2378 -54.66667,6.0303 -54.66667,6.0302 -38,3.918 -38,3.918 -60.66667,6.7421 -60.66667,6.7422 -78.66667,8.7059 -78.66666,8.7058 -41.33334,4.6432 -41.33333,4.6432 -96.94511,10.67 -96.9451022,10.6701 z m 191.611772,-287.17116 2.33334,-0.68416 38,-9.32524 38,-9.32525 32.66667,-7.99151 32.66666,-7.99152 18,-4.21689 18.00001,-4.2169 12.29522,-3.1636 12.29523,-3.1636 7.03811,-3.46548 7.0381,-3.46549 188.31845,-188.90962 188.31845,-188.90963 -0.31844,-0.86904 -0.31844,-0.86904 -45.28374,-46.4643 -45.28375,-46.46429 -21.87632,-22.21052 -21.87632,-22.21054 -12.68407,-13.45613 -12.68405,-13.45615 h -0.98931 -0.98929 l -21.83324,22.26404 -21.83325,22.26404 -82.66667,83.35527 -82.66667,83.35529 -82.64095,83.11357 -82.64095,83.11356 -4.4799,6.42757 -4.4799,6.42757 -25.86088,103.17288 -25.86088,103.1729 -0.0183,2.42318 -0.0183,2.42319 2.33334,-0.68416 z m 96.41561,-67.49555 h -2.91582 L 275.25816,755.12692 261.3416,741.58713 v -3.07906 -3.07907 l 7.40114,-31.04782 7.40113,-31.04782 1.37513,-5.21619 1.37515,-5.21619 43.91455,43.88286 43.91453,43.88285 -11.69081,2.8651 -11.69082,2.86509 -24.16762,6.13491 -24.16764,6.1349 z m 33.6469,-121.45901 c -2.16927,-1.90935 -3.98301,-3.46215 -5.5,-4.70536 -1.51699,-1.24321 -2.30253,-1.89672 -3.37905,-3.21808 -1.07652,-1.32136 -2.01522,-3.04523 -2.94153,-4.71807 -0.92631,-1.67284 -2.13058,-2.76925 -2.59286,-5.31435 -0.46228,-2.5451 0.20543,-6.70993 0.90716,-9.56434 0.70173,-2.85441 1.69165,-5.46775 3.03439,-7.43364 1.34274,-1.96589 4.49626,-5.10242 4.47189,-5.18364 -0.0244,-0.0812 149.1465,-146.81776 149.1465,-146.81776 L 615.46793,310.87218 c 4.49132,-4.577 11.31501,-4.68713 16.62272,-3.81557 4.40666,0.7236 9.66117,2.45294 12.52173,5.86392 4.17911,4.98324 8.29974,11.16634 7.45319,16.68927 -0.40968,2.67279 -1.15798,5.43658 -2.07596,8.04802 -0.91799,2.61143 -2.00565,5.0705 -3.09405,7.13383 L 499.47274,489.74184 c 0,0 -118.25622,123.75852 -145.3603,148.38771 -27.10408,24.62919 -6.46106,5.54176 -9.34598,7.5498 -2.88493,2.00803 -5.93884,4.29687 -7.59598,5.23731 -1.65714,0.94044 0.0909,0.84327 -2.09152,0.8419 -2.18241,-0.001 -7.17225,-2.64153 -9.34152,-4.55088 z m 492.63505,-282.58743 0.36421,0.0464 12.30245,-10.26826 12.30247,-10.26827 12.78588,-12.73173 12.78589,-12.73174 3.6472,-7.55076 3.64722,-7.55076 1.50438,-8.78257 1.5044,-8.78257 -1.51838,-8.86425 -1.51838,-8.86424 -4.26437,-8.66216 -4.26436,-8.66214 -44.71507,-45.17963 -44.71507,-45.17963 -9.9849,-4.9348 -9.98492,-4.93481 -13.45476,-0.48268 -13.45476,-0.48268 -7.65736,2.88249 -7.65738,2.88249 -7.96344,5.98623 -7.96342,5.98621 -20.04587,19.39422 -20.04587,19.39421 v 1.30224 1.30226 l 40.22884,39.55833 40.22886,39.55834 38.77115,38.2869 38.77116,38.28691 0.3642,0.0464 z"
       id="path221"
       sodipodi:nodetypes="cccccccccccccccccccccccccccccccccccccccccccccccccccccccccccccccccccccccccccccccccccccccccczzzzzzzscssssscczzzzzcccccccccccccccccccccccccccccccccc" />
    <path
       style="fill:#3d68b6;stroke-width:1.33333"
       d="M 4.3415916,1123.3352 H 0.00825812 V 562.00002 0.66666669 H 519.34161 1038.675 V 501.70334 1002.74 l -2.0684,2.9531 -2.0684,2.953 -2.527,1.3524 -2.527,1.3524 -33.07132,3.3149 -33.07126,3.3149 -32.02637,3.9277 -32.02637,3.9278 -34.6403,3.4649 -34.64029,3.4649 -95.33334,10.5887 -95.33334,10.5888 -40,4.0846 -40,4.0847 -27.33333,3.211 -27.33334,3.211 -26,2.775 -26,2.775 -49.33333,5.3145 -49.33334,5.3146 -63.33333,7.2669 -63.33334,7.2669 -68.66667,7.4125 -68.666669,7.4125 -40.666668,4.6322 -40.666668,4.6322 H 4.3415916 Z M 983.34152,734.22106 c 34.42518,11.61312 0.34179,108.99306 0.34179,108.99306 l 0.34179,108.99307 -3.85056,-0.56515 -3.85056,-0.56515 -0.81832,1.32408 -0.81832,1.32408 4.32709,-0.19592 4.32709,-0.19592 0.42607,3.00001 0.42607,3 0.57403,1.5e-4 h 0.57393 V 505.81986 52.306343 L 519.34202,52.819839 53.342414,53.333335 C 210.67447,211.68476 217.58826,275.46048 491.20335,374.1697 c 26.22655,-26.32731 26.55069,-26.56185 -20.92159,20.88998 l -39.05974,39.0429 -1.05137,-1.05138 -1.05139,-1.05138 0.44445,1.57282 0.44444,1.57281 -23.97932,24.15589 -23.97932,24.15591 -0.49629,-1.48891 -0.49631,-1.48892 -1.94894,2.78251 -1.94894,2.78251 -1.57544,-0.94492 -1.57544,-0.94492 1.79908,2.21877 1.79907,2.21877 -1.97368,1.97368 -1.97367,1.97368 -0.8254,-0.8254 -0.8254,-0.82538 v 1.47849 1.47849 l -12.35627,12.74374 c -28.94194,17.2096 0.74481,-0.69734 -19.53624,19.96753 l -5.88256,5.9939 -1.4458,-0.82263 -1.4458,-0.82261 1.02712,1.12977 1.02712,1.12977 -4.91045,5.02878 -4.91047,5.02877 -1.14969,-0.71056 -1.14969,-0.71055 0.36636,1.76578 0.36637,1.76577 -2,-0.44444 -2,-0.44445 1.02712,1.02712 1.02712,1.02712 -4.91045,5.02877 -4.91047,5.02877 -1.32267,-0.81746 -1.32268,-0.81746 0.79831,1.2917 0.79831,1.29169 -29.31782,29.24765 -29.31781,29.24766 0.81641,-2.19847 0.81643,-2.19847 -1.1603,-0.71709 -1.16029,-0.71711 0.0695,4.24215 0.0693,4.24215 -1.66667,0.17343 -1.66666,0.17341 -1.11931,0.16667 -1.11932,0.16666 -1.54735,3.39607 -1.54736,3.39608 0.0225,0.93725 0.0224,0.93727 2.81053,-4.38923 2.81053,-4.38922 0.45872,0.45872 0.45874,0.45873 -3.26007,7.93049 -3.26008,7.93051 -0.0316,3.07869 -0.0316,3.07868 -1.31807,-0.8146 -1.31805,-0.81461 0.71157,1.85436 0.71159,1.85435 -12.16403,48.54822 -12.16401,48.54825 -11.82391,47.29448 -11.8239,47.29449 0.42636,0.42635 0.42634,0.42636 9.46806,-2.15347 9.46805,-2.15347 1.36667,0.84466 1.36666,0.84464 v -1.25939 -1.25937 l 14.67652,-3.64106 14.67652,-3.64105 2.04666,1.69857 2.04665,1.69858 1.61016,-1.6225 1.61016,-1.62248 -2.19847,0.83656 -2.19846,0.83656 -0.73871,-1.19525 -0.73871,-1.19525 9.9839,-2.35371 9.98388,-2.35371 1.86715,0.7165 1.86713,0.71649 0.41948,-1.22824 0.41948,-1.22824 4.54065,-0.90499 4.54066,-0.905 -1.08,1.74748 -1.08,1.74748 1.56109,-0.96481 1.56109,-0.96481 -0.60469,-0.97842 -0.60469,-0.97841 18.24961,-4.51295 18.24961,-4.51293 3.33334,-0.33445 3.33333,-0.33447 4.56288,-1.38815 4.56287,-1.38814 1.80098,1.49469 1.80098,1.49468 -0.73124,-1.9056 -0.73124,-1.9056 15.70072,-3.83408 15.70072,-3.83407 3.60801,-0.004 3.60802,-0.004 -0.7936,-1.28409 -0.79362,-1.28408 1.85226,0.67297 1.85226,0.67298 -0.36637,1.5991 -0.36636,1.59911 1.38812,-0.85791 1.38811,-0.8579 -0.70004,-1.13271 -0.70006,-1.13271 4.34496,-0.87688 4.34498,-0.87689 10.66666,-3.19289 10.66667,-3.1929 6.66667,-4.58654 6.66666,-4.58655 12.43635,-12.13385 12.43635,-12.13386 1.43633,0.8877 1.43633,0.8877 -0.90204,-1.45952 -0.90202,-1.45952 4.16748,-4.74649 4.16746,-4.74649 h 1.27391 1.27389 l -0.95136,1.53934 -0.95137,1.53935 1.56109,-0.96481 1.5611,-0.96482 -0.84431,-1.36613 -0.84432,-1.36612 39.05864,-39.1412 39.05864,-39.14119 1.43059,0.81321 1.4306,0.81323 -1.04068,-1.14335 -1.04069,-1.14333 10.27624,-10.33687 10.27624,-10.33686 1.13081,0.69888 1.13081,0.69888 -0.36636,-1.33898 -0.36637,-1.33898 59.11331,-59.34147 59.11331,-59.34147 c 71.12873,93.1956 206.25266,178.83875 309.77333,214.7163 z M 756.67491,365.27093 723.34158,331.03126 M 291.83034,768.66669 H 290.717 l -4.35436,-4.17389 -4.35437,-4.17389 2.66667,1.84056 2.66666,1.84056 -1.76414,-2.25408 -1.76416,-2.25408 -1.69592,0.65078 -1.69592,0.65079 -3.4548,-4.52945 -3.45479,-4.52947 2.2482,-2.48947 2.2482,-2.48945 -3.11596,2.60047 -3.11596,2.60048 -5.37312,-5.76026 -5.37311,-5.76026 0.74876,-4.218 0.74876,-4.218 7.40894,-31.33334 7.40893,-31.33333 0.75036,-3.24003 0.75036,-3.24003 43.24768,43.23234 43.2477,43.23233 v 0.8905 0.89049 l -5.66667,0.89389 -5.66667,0.89388 -9.12647,2.65078 -9.12646,2.65076 -1.94279,-0.74551 -1.94279,-0.74552 0.77298,1.25069 0.77297,1.2507 -4.6172,0.86618 -4.61721,0.8662 -1.62586,-1.00484 -1.62586,-1.00484 0.88432,1.43086 0.8843,1.43085 -4.34496,0.98913 -4.34497,0.98915 -2.66667,0.34157 -2.66666,0.34158 v 0.22076 0.22074 l -4,0.59758 -4,0.59756 -3.86563,1.29278 -3.86564,1.2928 z m 272.525,-344.33327 C 452.4086,547.9814 200.46291,733.4116 384.58958,545.40108 c 52.42191,-43.13607 50.97414,-51.6936 122.923,-123.40727 l 23.05819,-22.52758 z"
       id="path219"
       sodipodi:nodetypes="cccccccccccccccccccccccccccccccccccccccccccccccccccccccccccccccccccccccccccccccccccccccccccccccccccccccccccccccccccccccccccccccccccccccccccccccccccccccccccccccccccccccccccccccccccccccccccccccccccccccccccccccccccccccccccccccccccccccccccccccccccccccccccccccccccccccccccccccccccccccccccc" />
    <path
       style="fill:#174a81;stroke-width:1.33333"
       d="M 3.9213461,1123.3334 H 0.00825812 V 562.00002 0.66666669 H 519.34161 1038.675 l -0.02,500.33335331 -0.02,500.33338 -1.686,3.3333 -1.6861,3.3334 -3.4491,1.6538 -3.4492,1.6539 -27.8451,2.7397 -27.84524,2.7396 -38,4.6078 -38,4.6078 -46,4.6327 -46,4.6328 -76.91714,8.6624 -76.91713,8.6624 -33.74954,3.3841 -33.74953,3.3842 -52.66667,5.9572 -52.66667,5.9572 -62.66667,6.6816 -62.66667,6.6817 -12,1.3193 -12,1.3193 -27.33333,3.3045 -27.33333,3.3045 -86.66667,9.4238 -86.66667,9.4237 -46.420252,5.2997 -46.4203539,5.2996 z m 50.9256299,-60 h 2.842199 l 49.492875,-14.0761 49.49288,-14.0761 23.33334,-6.6717 23.33333,-6.6717 25.33333,-7.3743 25.33334,-7.3742 35.33333,-11.12529 35.33334,-11.12522 36,-11.95578 36,-11.95579 28.66667,-10.0011 28.66666,-10.00108 31.33334,-12.01416 31.33333,-12.01416 13.33334,-5.54676 13.33333,-5.54676 6.66667,-3.03537 6.66666,-3.03537 8.66667,-3.82532 8.66667,-3.82532 27.33333,-13.5785 27.33334,-13.57849 18,-10.27353 18,-10.27355 12,-7.50384 12,-7.50386 12.58733,-8.40289 12.58734,-8.40289 10.746,10.49613 10.746,10.49612 6.66666,6.10361 6.66667,6.10361 11.33333,9.24102 11.33334,9.24103 15.33333,10.57085 15.33334,10.57084 9.33333,5.87494 9.33333,5.87493 17.90167,9.81288 17.90167,9.81289 17.43166,7.80936 17.43167,7.80935 16,5.95684 16,5.95683 14,4.1029 14,4.10291 14,3.30752 14,3.30752 3.33334,0.44184 3.33333,0.44184 V 506.00002 52.000002 H 519.34161 52.674926 L 52.339853,557.66669 52.004778,1063.3334 Z"
       id="path217" />
    <path
       style="fill:#124679;stroke-width:1.33333"
       d="m 985.46236,49.697296 c 4.10985,0.0544 -14.97295,0.541193 -3.45407,0.571596 l 0.55931,0.535974 0.5593,0.535975 -931.785307,-0.02266 V 557.64079 1063.9634 l 2.384328,0.4592 2.384328,0.4592 13.615673,-4.0417 13.615672,-4.0419 38.666666,-10.8944 38.66667,-10.8944 16,-4.6428 16,-4.6428 7.33334,-1.9514 7.33333,-1.9513 8.66667,-2.6771 8.66666,-2.6771 11.33334,-3.2367 11.33333,-3.2368 11.33333,-3.4794 11.33334,-3.4794 5.33333,-1.7248 5.33334,-1.72475 18,-5.55636 18,-5.55635 8.66666,-3.04747 8.66667,-3.04746 40.66667,-13.4567 40.66667,-13.4567 21.33333,-7.50055 21.33333,-7.50054 2.66667,-0.75736 2.66667,-0.75734 1.33333,-0.91558 1.33333,-0.91557 8.66667,-2.9726 8.66667,-2.97259 2.66667,-1.14961 2.66666,-1.1496 10.66667,-4.24836 10.66667,-4.24835 14,-5.73252 14,-5.73252 10.66666,-4.63762 10.66667,-4.63763 12,-5.31112 12,-5.31111 22,-11.34445 22,-11.34444 7.35548,-3.95945 7.3555,-3.95944 10.894,-6.18148 10.894,-6.18148 18.41719,-11.52299 18.41717,-11.52298 6.35508,-4.62788 6.35508,-4.62786 8.97825,8.97362 8.97826,8.97363 16,13.73083 16,13.73084 8.66666,6.54135 8.66667,6.54134 -0.31733,1.5024 -0.31735,1.50239 1.8121,-0.69536 1.81208,-0.69536 2.07668,2.07668 2.07668,2.07668 h 0.85632 0.8563 l 8.40826,6 8.40824,6 h 1.02601 1.026 l 7.31531,4.85563 7.31529,4.85561 15.37205,8.47772 15.37206,8.47771 h 0.29928 0.29929 l 12.48469,5.85052 12.48471,5.85053 14,5.57693 14,5.57694 4.66667,1.78829 4.66667,1.78829 15.88345,4.93486 15.88345,4.93485 10.78322,2.62382 10.78321,2.6238 2.66667,0.512 2.66666,0.512 6.33334,0.88698 6.33333,0.88699 0.31746,-363.17341 0.31745,-363.17341 m 47.693,198.33334 0.3279,48.33333 0.6776,-240.66667 c 0.1717,-2.95891 0.058,124.62818 1.0054,258.80104 l 0.3279,499.46771 -1.4779,4.23947 -1.4779,4.2395 -3.8333,1.9823 -3.8334,1.9824 -23.6888,1.9376 -23.68874,1.9376 -42,5.3232 -42,5.3232 -17.33334,1.387 -17.33333,1.387 -60,6.6596 -60.00001,6.6596 -18.66666,2.0808 -18.66667,2.0808 -27.33333,3.1566 -27.33334,3.1566 -16.66667,1.4941 -16.66666,1.4942 -59.33334,6.5962 -59.33333,6.5962 -54.00001,5.9602 -54,5.9602 -17.33333,1.451 -17.33334,1.4511 -2.66666,0.5481 -2.66667,0.5482 -6,0.6649 -6,0.6649 -27.33333,3.3298 -27.33334,3.3298 -20,2.1169 -20,2.117 -46,5.2175 -46,5.2174 -27.46413,2.7129 -27.464121,2.7129 -39.200633,4.674 -39.200632,4.6739 H 9.0060417 0 L 0.61684014,849.00003 1.2336803,576.00002 1.2876359,288.33335 3.3082322,-1.5872362 H 173.97491 c 329.4913,7.6145809 540.59979,1.42178584 864.66669,1.69648554"
       id="path215"
       sodipodi:nodetypes="cccccccccccccccccccccccccccccccccccccccccccccccccccccccccccccccccccccccccccccccccccccccccccccccccccccccccccccccccccccccccccccccccccccccccccccccccccccc" />
    <path
       style="fill:#0e4174;stroke-width:1.33333"
       d="m 1008.4174,1007.6351 -187.57282,25.5776 -45.16361,5.0819 -0.94251,-1.525 -0.94251,-1.525 -7.69732,0.6257 -7.6973,0.6256 -0.82251,0.8225 -0.82249,0.8225 6.86397,-0.5413 6.86397,-0.5413 1.76196,1.1171 1.76198,1.1172 -6,0.071 -6,0.071 -5.15918,0.7465 -5.15917,0.7466 0.89212,-1.4435 0.89212,-1.4435 -3.90457,0.7809 -3.90458,0.7809 -0.78794,-1.2749 -0.78795,-1.2749 -6.37376,1.0879 -6.37376,1.0879 -7.29028,1.2328 -7.29029,1.2328 -2.04304,-0.6392 -2.04306,-0.6392 1.84758,1.3162 1.84756,1.3163 8.15244,-0.7011 8.15242,-0.7011 1.33334,-0.9705 1.33333,-0.9706 5.33333,0.7218 5.33334,0.7217 -20,2.391 -20,2.3911 -34.95135,4.035 -34.95135,4.035 h -2.71532 -2.71532 v -1.3333 -1.3333 h 5.25464 5.25465 l 0.6332,-1.0246 0.6332,-1.0245 -5.28776,0.5043 -5.28776,0.5042 -2.93341,-2.4797 -2.93268,-2.4798 2.26588,2.6971 2.26588,2.6971 -0.98849,1.5995 -0.98851,1.5994 -13.27737,1.4396 -13.27739,1.4396 -44.66667,5.1662 -44.66667,5.1663 -12,0.8489 -12,0.8489 -2.66666,0.6694 -2.66667,0.6693 2,-1.5464 2,-1.5464 -2.66667,0.937 -2.66666,0.937 -4,1.09 -4,1.09 -37.20639,4.2003 -37.20638,4.2003 -2.46213,-0.6439 -2.46212,-0.6438 0.65757,1.0639 0.65758,1.064 -14.98907,0.9303 -14.98907,0.9303 -47.33333,5.9594 -47.33334,5.9594 -12,0.6317 -12,0.6316 -8.02929,1.2302 -8.0293,1.2301 -35.30404,4.2163 -35.30404,4.2162 -10.20088,0.1773 -10.20089,0.1772 1.2792,0.7938 1.2792,0.7938 -12.41165,0.8225 -12.41165,0.8225 -32.666666,3.9942 -32.666668,3.9942 -17.793491,2.0562 -17.793492,2.0562 -8.2071791,-4e-4 H 0.67492481 L 711.91088,841.10974 c 0,0 104.72806,61.99026 141.35896,87.68209 46.08241,32.32084 155.14756,78.84327 155.14756,78.84327 z M 647.79819,884.5638 1.3478621,0.66666669 M 50.006456,54.224019 c 1.316267,164.612141 2.400703,292.387261 2.400703,459.887111 m 0,0 -1.732233,550.55557 h 3.984056 3.984058 l 12.349276,-3.8172 12.349278,-3.8173 13.333334,-3.6524 13.333332,-3.6524 3.33334,-1.197 3.33333,-1.1971 10.66667,-2.7901 10.66666,-2.7901 2,-0.4248 2,-0.4248 3.75347,-1.4517 3.75347,-1.4517 h 0.65856 0.65854 l -0.97454,1.6666 -0.97455,1.6667 2.56253,-2.18 2.56252,-2.1799 18.00001,-4.9009 18,-4.9009 -151.305841,48.3564 m 139.300031,-36.416 17.33914,-14.2225 m 0,0 10,-2.6365 m 0,0 10,-2.6365 m 0,0 12,-3.5811 m 0,0 12,-3.5812 m 0,0 13.33333,-3.9686 m 0,0 13.33334,-3.9686 m 0,0 8,-2.3746 m 0,0 8,-2.37465 m 0,0 2.33333,-1.02656 m 0,0 2.33334,-1.02656 m 0,0 2,0.76748 m 0,0 2,0.76746 m 0,0 v -1.29148 m 0,0 v -1.29149 m 0,0 h 1.46516 m 0,0 h 1.46516 m 0,0 4.2015,-1.81332 m 0,0 4.20151,-1.81333 m 0,0 7.50932,-2.2052 m 0,0 7.50932,-2.20522 m 0,0 2.49068,0.81098 m 0,0 2.49068,0.81097 m 0,0 -1.71417,-1.23383 m 0,0 -1.71418,-1.23381 m 0,0 5.40827,-1.62036 m 0,0 5.40827,-1.62036 m 0,0 1.51192,0.93441 m 0,0 1.51192,0.93443 m 0,0 -0.78914,-1.27685 m 0,0 -0.78914,-1.27684 m 0,0 15.40372,-5.06974 m 690.43156,22.98977 0.3327,-482.88908 0.3327,-482.889019 0.3748,-18 0.3749,-18.000001 0.2924,499.46772 0.2925,499.46771"
       id="path213"
       sodipodi:nodetypes="ccccccccccccccccccccccccccccccccccccccccccccccccccccccccccccccccccccccccccccccccccccccccccccccccccccsccccccccccccccccccccccccccccccccccccccccccccccccccccccccccccccccccccccccccccccccccccccccccccccccccccc" />
    <path
       style="fill:#0c3c70;stroke-width:1.33333"
       d="m 2.3415915,1122.0001 h -1 L 1.5549743,703.66669 1.768357,285.33335 l 0.4263977,4 0.4263978,4 0.3602194,414.33341 0.3602196,414.33344 z M 1026.0197,1010.8659 l -4.0114,0.4411 1.8791,-1.1968 1.8791,-1.1968 1.6215,0.6223 1.6215,0.6222 3.8327,-3.2968 3.8328,-3.2968 0.671,-501.11548 0.6711,-501.1154866 0.3289,498.8010566 0.329,498.80104 -1.3571,3.89317 -1.3572,3.8931 -2.9648,1.8516 -2.9649,1.8515 z"
       id="path211" />
  </g>
</svg>
