<?xml version="1.0" encoding="UTF-8" standalone="no"?>
<svg
   height="48"
   width="48"
   version="1.1"
   id="svg4"
   sodipodi:docname="pan-hand.svg"
   inkscape:version="1.2.1 (9c6d41e410, 2022-07-14)"
   xmlns:inkscape="http://www.inkscape.org/namespaces/inkscape"
   xmlns:sodipodi="http://sodipodi.sourceforge.net/DTD/sodipodi-0.dtd"
   xmlns="http://www.w3.org/2000/svg"
   xmlns:svg="http://www.w3.org/2000/svg">
  <defs
     id="defs8" />
  <sodipodi:namedview
     id="namedview6"
     pagecolor="#ffffff"
     bordercolor="#000000"
     borderopacity="0.25"
     inkscape:showpageshadow="2"
     inkscape:pageopacity="0.0"
     inkscape:pagecheckerboard="0"
     inkscape:deskcolor="#d1d1d1"
     showgrid="false"
     inkscape:zoom="20.875"
     inkscape:cx="21.48503"
     inkscape:cy="24"
     inkscape:window-width="2560"
     inkscape:window-height="1377"
     inkscape:window-x="1912"
     inkscape:window-y="-8"
     inkscape:window-maximized="1"
     inkscape:current-layer="svg4" />
  <path
     stroke="#FFF"
     d="M23.05 48h13.4q3.15 0 5.35-2.175Q44 43.65 44 40.5V12.45q0-1.75-1.25-3t-3-1.25q-.55 0-1.075.1-.525.1-.925.45v-2.3q0-1.9-1.225-3.25T33.5 1.85q-.65 0-1.25.175T31.1 2.6q-.45-1.2-1.475-1.9Q28.6 0 27.3 0q-1.75 0-3.025 1.25T23 4.25v1.3q-.4-.35-.925-.5Q21.55 4.9 21 4.9q-1.75 0-3 1.25t-1.25 3v21.8l-7.9-4.45q-.85-.45-1.75-.175t-1.6.925L2 30.3l14.85 15.4q1.2 1.25 2.825 1.775Q21.3 48 23.05 48Zm0-3q-1.05 0-2.075-.2-1.025-.2-1.725-.9L6.5 30.65l1.35-1.25 11.9 6.45V9.15q0-.55.35-.9t.9-.35q.55 0 .9.35t.35.9V24H26V4.25q0-.55.35-.9t.9-.35q.55 0 .9.35t.35.9V24h3.75V6.1q0-.55.35-.9t.9-.35q.55 0 .9.35t.35.9V24h3.75V12.45q0-.55.35-.9t.9-.35q.55 0 .9.35t.35.9V40.5q0 1.9-1.325 3.2Q38.35 45 36.45 45h-6.7Z"
     id="path2" />
  <path
     style="fill:#ffffff;stroke-width:0.0479042"
     d="M 22.083832,45.434009 C 20.715384,45.306415 19.917982,45.050881 19.274636,44.533782 19.027773,44.335361 5.8507273,30.695908 5.8467942,30.634731 c -0.0024,-0.03736 1.9224414,-1.79741 1.9558503,-1.788406 0.01633,0.0044 2.5949605,1.398322 5.7302895,3.0976 l 5.700599,3.089598 0.02395,-13.133528 0.02395,-13.1335279 0.115575,-0.2870721 c 0.07872,-0.1955325 0.201037,-0.3725337 0.383587,-0.5550836 0.344536,-0.3445361 0.688773,-0.4828307 1.201366,-0.4826391 0.791229,2.875e-4 1.362106,0.3834319 1.627257,1.0921093 0.09633,0.2574802 0.09736,0.338217 0.09736,7.6356804 v 7.375448 h 1.412723 1.412724 l 0.01243,-9.880239 0.01243,-9.8802399 0.134485,-0.2874251 c 0.282801,-0.6044105 0.83553,-0.9463157 1.542162,-0.9539458 0.750021,-0.0081 1.368699,0.3983381 1.639893,1.0773182 0.07983,0.1998802 0.08537,0.7735426 0.0972,10.0682446 l 0.01254,9.856287 h 1.388659 1.38866 v -8.759928 c 0,-5.7253523 0.01684,-8.8487367 0.04862,-9.0162905 0.104686,-0.5520089 0.448569,-0.9995093 0.947957,-1.233593 0.238713,-0.1118944 0.332876,-0.1279129 0.751928,-0.1279129 0.391113,0 0.52052,0.019162 0.705017,0.1043963 0.316833,0.1463712 0.683265,0.5060183 0.83931,0.8237696 l 0.13232,0.2694389 0.01247,8.9700596 0.01247,8.97006 h 1.412679 1.412679 v -5.691904 c 0,-6.262172 -0.01527,-5.931883 0.296062,-6.401916 0.301683,-0.455457 0.805961,-0.710525 1.404537,-0.710428 0.715665,9.6e-5 1.298799,0.36128 1.585381,0.981902 l 0.13917,0.301388 v 14.562874 c 0,13.894086 -0.004,14.581422 -0.08705,14.966746 -0.191591,0.88894 -0.605501,1.660685 -1.258951,2.34735 -0.836632,0.879157 -1.835509,1.386671 -3.013285,1.531003 -0.505261,0.06192 -14.355627,0.06384 -15.017964,0.0021 z"
     id="path350" />
</svg>
