<svg width="64" height="64" viewBox="0 0 64 64" fill="none" xmlns="http://www.w3.org/2000/svg">
<path d="M60.36 26.6101C57.9516 22.6907 54.1687 19.8098 49.75 18.5301C51.2272 17.4308 52.3203 15.8939 52.8742 14.1379C53.4282 12.3818 53.4146 10.4959 52.8356 8.74793C52.2565 7 51.1414 5.47899 49.6486 4.40095C48.1559 3.32292 46.3613 2.74269 44.52 2.74269C42.6787 2.74269 40.8841 3.32292 39.3914 4.40095C37.8986 5.47899 36.7835 7 36.2044 8.74793C35.6254 10.4959 35.6118 12.3818 36.1657 14.1379C36.7197 15.8939 37.8128 17.4308 39.29 18.5301L38.77 18.7001C36.8708 17.1136 34.4747 16.2445 32 16.2445C29.5253 16.2445 27.1292 17.1136 25.23 18.7001L24.72 18.5401C26.2003 17.4404 27.2962 15.902 27.8521 14.1437C28.408 12.3854 28.3954 10.4966 27.8162 8.74586C27.2371 6.99508 26.1208 5.47143 24.626 4.39147C23.1312 3.31152 21.3341 2.73022 19.49 2.73022C17.6459 2.73022 15.8488 3.31152 14.354 4.39147C12.8592 5.47143 11.7429 6.99508 11.1638 8.74586C10.5846 10.4966 10.572 12.3854 11.1279 14.1437C11.6837 15.902 12.7797 17.4404 14.26 18.5401C9.84548 19.8229 6.06669 22.7033 3.66 26.6201C2.87488 27.8975 2.58772 29.4193 2.85333 30.8949C3.11895 32.3706 3.91874 33.6967 5.1 34.6201C8.93491 37.5429 13.5728 39.2215 18.39 39.4301C16.0684 41.1584 14.0938 43.3094 12.57 45.7701C11.6366 47.291 11.2961 49.1023 11.6133 50.8583C11.9306 52.6143 12.8834 54.192 14.29 55.2901C19.3788 59.1699 25.6009 61.2712 32 61.2712C38.3991 61.2712 44.6212 59.1699 49.71 55.2901C51.1165 54.192 52.0694 52.6143 52.3867 50.8583C52.7039 49.1023 52.3634 47.291 51.43 45.7701C49.9062 43.3094 47.9316 41.1584 45.61 39.4301C50.4352 39.2226 55.0807 37.5403 58.92 34.6101C60.1031 33.688 60.9043 32.3618 61.17 30.8855C61.4358 29.4093 61.1473 27.8869 60.36 26.6101V26.6101ZM38.25 11.5201C38.248 10.2809 38.6133 9.06885 39.2998 8.03711C39.9862 7.00536 40.963 6.20016 42.1068 5.72319C43.2505 5.24623 44.51 5.1189 45.7261 5.35728C46.9422 5.59565 48.0604 6.18905 48.9394 7.06253C49.8185 7.936 50.419 9.05038 50.6651 10.2649C50.9112 11.4795 50.7919 12.7397 50.3222 13.8865C49.8526 15.0333 49.0536 16.0152 48.0262 16.7082C46.9989 17.4012 45.7892 17.7742 44.55 17.7801H44.49C42.834 17.7722 41.2484 17.1095 40.0793 15.9366C38.9103 14.7638 38.2526 13.1761 38.25 11.5201V11.5201ZM32 18.7501C33.6 18.7501 35.1642 19.2246 36.4946 20.1135C37.825 21.0025 38.8619 22.2659 39.4742 23.7442C40.0865 25.2225 40.2467 26.8491 39.9345 28.4184C39.6224 29.9877 38.8519 31.4292 37.7205 32.5606C36.5891 33.692 35.1476 34.4625 33.5783 34.7747C32.009 35.0868 30.3823 34.9266 28.9041 34.3143C27.4258 33.702 26.1623 32.6651 25.2734 31.3347C24.3845 30.0043 23.91 28.4402 23.91 26.8401C23.9126 24.6953 24.7658 22.6391 26.2824 21.1225C27.799 19.6059 29.8552 18.7528 32 18.7501V18.7501ZM13.23 11.5201C13.228 10.2809 13.5933 9.06885 14.2798 8.03711C14.9662 7.00536 15.943 6.20016 17.0868 5.72319C18.2305 5.24623 19.49 5.1189 20.7061 5.35728C21.9222 5.59565 23.0403 6.18905 23.9194 7.06253C24.7985 7.936 25.399 9.05038 25.6451 10.2649C25.8912 11.4795 25.7719 12.7397 25.3022 13.8865C24.8326 15.0333 24.0336 16.0152 23.0062 16.7082C21.9789 17.4012 20.7692 17.7742 19.53 17.7801H19.47C17.8148 17.7696 16.2308 17.106 15.0622 15.9338C13.8937 14.7615 13.2352 13.1753 13.23 11.5201V11.5201ZM19.5 37.0001C14.8399 36.9978 10.3114 35.4543 6.62 32.6101C5.93146 32.068 5.46566 31.2922 5.31085 30.4297C5.15603 29.5672 5.32296 28.6778 5.78 27.9301C7.21339 25.5872 9.22579 23.6527 11.6235 22.3128C14.0211 20.973 16.7234 20.273 19.47 20.2801H19.53C20.8149 20.2832 22.0945 20.4444 23.34 20.7601C22.5241 21.9172 21.9492 23.2265 21.6495 24.6102C21.3498 25.994 21.3314 27.4238 21.5954 28.8148C21.8594 30.2058 22.4005 31.5295 23.1863 32.7072C23.9722 33.8848 24.9869 34.8925 26.17 35.6701C25.2477 35.9098 24.3424 36.2104 23.46 36.5701C22.1565 36.8376 20.8306 36.9816 19.5 37.0001V37.0001ZM49.3 47.0701C49.9125 48.0593 50.1389 49.2396 49.936 50.3852C49.7331 51.5308 49.115 52.5615 48.2 53.2801C43.545 56.829 37.8535 58.7511 32 58.7511C26.1465 58.7511 20.455 56.829 15.8 53.2801C14.885 52.5615 14.2669 51.5308 14.064 50.3852C13.8611 49.2396 14.0875 48.0593 14.7 47.0701C16.523 44.1218 19.0692 41.6883 22.097 40.0007C25.1248 38.313 28.5336 37.4271 32 37.4271C35.4664 37.4271 38.8752 38.313 41.903 40.0007C44.9308 41.6883 47.477 44.1218 49.3 47.0701V47.0701ZM57.4 32.6001C53.7109 35.4499 49.1816 36.9972 44.52 37.0001C43.1772 36.9992 41.8377 36.8686 40.52 36.6101C39.6431 36.2567 38.7446 35.9595 37.83 35.7201C39.0131 34.9425 40.0278 33.9348 40.8137 32.7572C41.5995 31.5795 42.1406 30.2558 42.4046 28.8648C42.6686 27.4738 42.6502 26.044 42.3505 24.6602C42.0508 23.2765 41.4759 21.9672 40.66 20.8101C41.9124 20.495 43.1986 20.3338 44.49 20.3301H44.55C47.2949 20.3247 49.9951 21.0255 52.3909 22.3653C54.7867 23.705 56.7975 25.6386 58.23 27.9801C58.6777 28.7193 58.8403 29.5963 58.6875 30.4469C58.5347 31.2974 58.0769 32.063 57.4 32.6001V32.6001Z" fill="#ffffff" id="id_101"></path>
</svg>